<svg width="802" height="795" viewBox="0 0 802 795" fill="none" xmlns="http://www.w3.org/2000/svg">
<g opacity="0.3" clip-path="url(#clip0_101_3)">
<path d="M491.61 386.643C486.051 385.216 481.944 389.11 476.805 393.182C470.467 397.992 464.762 407.999 452.102 385.512C447.489 377.288 446.975 363.58 436.719 347.31C429.766 336.306 407.949 308.503 443.798 302.307C463.656 298.874 492.49 313.525 501.581 329.2C507.671 339.823 485.139 349.289 496.586 363.23C503.048 371.4 510.615 384.42 507.372 388.695C504.342 392.668 496.912 388.115 491.61 386.643Z" stroke="white" stroke-width="0.5"/>
<path d="M519.615 322.9C528.16 333.893 504.918 346.931 513.894 365.014C515.115 367.456 516.379 370.157 517.385 372.901C521.1 382.076 527.651 390.761 526.346 395.497C524.546 403.503 517.439 402.343 510.253 402.259C502.551 402.264 495.606 406.648 486.704 407.391C475.694 408.233 473.387 417.918 458.821 407.434C454.888 404.665 450.638 406.196 446.488 396.034C443.254 388.102 439.901 388.682 437.609 380.057C434.615 368.9 438.265 360.84 423.378 346.963C405.677 330.653 397.619 287.204 438.655 284.888C439.989 284.923 441.323 284.957 442.702 285.249C457.388 287.223 467.504 295.025 494.346 307.367C504.354 311.475 514.15 315.884 519.615 322.9Z" stroke="white" stroke-width="0.5"/>
<path d="M537.39 316.643C548.435 328.266 524.012 345.223 530.901 366.585C531.952 369.588 532.79 372.892 533.628 376.196C536.321 387.141 545.63 396.41 545.58 402.255C545.312 414.507 538.224 416.528 528.895 417.875C519.263 419.009 508.575 423.245 496.861 421.555C479.373 418.74 480.012 431.631 458.722 419.126C453.108 415.851 446.992 421.95 441.433 406.725C436.925 394.503 431.236 399.997 428.365 388.023C424.398 372.788 434.203 364.992 410.338 346.828C382.148 325.167 388.028 267.105 433.816 267.682C435.666 267.627 437.346 268.133 439.028 268.638C455.752 273.178 460.428 284.84 503.085 301.08C515.504 305.302 529.594 308.439 537.39 316.643Z" stroke="white" stroke-width="0.5"/>
<path d="M555.424 310.342C568.452 322.683 544.61 342.989 547.907 368.157C548.274 371.808 548.944 375.672 549.613 379.536C551.285 392.249 562.061 402.326 564.298 409.103C569.688 424.887 558.752 430.757 547.236 433.279C535.719 435.8 521.5 439.584 506.671 435.249C482.875 428.218 486.034 444.919 457.972 430.134C450.676 426.354 442.74 437.277 435.728 416.733C429.947 400.219 422.224 410.841 418.471 395.305C413.789 375.949 429.491 368.459 396.863 345.708C357.926 318.741 378.045 246.278 428.539 249.49C430.692 249.649 432.675 250.367 434.917 251.041C453.634 257.889 452.96 273.925 511.344 293.551C526.912 299.085 545.252 300.691 555.424 310.342Z" stroke="white" stroke-width="0.5"/>
<path d="M573.199 304.086C588.211 317.145 562.887 341.157 564.958 369.985C565.157 374.197 565.4 378.665 565.642 383.134C566.336 397.872 580.128 408.49 583.317 416.164C591.014 436.06 579.279 444.987 565.878 448.894C552.477 452.803 534.726 456.137 516.827 449.413C486.981 438.121 492.659 458.632 457.827 441.568C449.109 437.238 439.353 452.987 430.63 427.165C423.618 406.621 413.515 421.898 408.968 403.315C403.314 379.883 425.474 372.868 383.825 345.574C334.398 313.256 368.499 226.436 423.654 232.027C426.367 232.354 428.653 233.286 430.984 234.475C451.74 243.888 445.714 264.299 519.825 287.309C538.061 292.912 560.697 293.245 573.199 304.086Z" stroke="white" stroke-width="0.5"/>
<path d="M590.975 297.829C608.274 311.821 581.936 339.191 581.965 371.557C581.995 376.328 581.766 381.143 581.84 386.171C581.513 402.678 598.578 413.791 602.248 422.709C612.206 446.46 600.02 458.913 584.476 464.254C569.191 469.549 548.122 472.13 526.895 463.062C490.74 447.555 498.937 471.875 457.381 452.789C446.981 447.953 435.404 468.528 424.97 437.431C416.684 412.595 404.502 432.743 399.117 410.855C392.492 383.345 420.807 376.594 370.18 345.014C310.007 307.39 358.179 206.729 418.209 214.395C421.18 214.678 424.072 216.035 426.705 217.437C449.713 229.115 438.121 254.202 527.959 280.597C549.255 286.998 576.141 285.801 590.975 297.829Z" stroke="white" stroke-width="0.5"/>
<path d="M609.008 291.528C628.291 306.238 601.244 337.181 599.23 373.083C598.832 378.458 598.435 383.833 598.083 389.466C596.991 407.697 618.317 418.87 621.223 429.512C629.237 458.904 620.546 473.142 603.074 479.612C585.859 486.036 561.303 488.423 537.006 476.968C494.801 457.2 505.259 485.374 457.192 463.966C445.111 458.625 431.669 483.766 419.827 447.605C410.523 418.436 395.792 443.8 389.782 418.306C382.444 386.673 416.7 380.487 357.31 344.32C286.647 301.344 348.588 186.628 413.538 196.629C417.07 197.08 420.005 198.695 423.199 200.266C448.2 214.252 431.044 244.016 537.124 273.706C560.662 280.781 591.585 278.354 609.008 291.528Z" stroke="white" stroke-width="0.5"/>
<path d="M626.784 285.272C648.05 300.7 620.553 335.17 616.022 374.957C615.457 380.891 614.633 386.871 613.854 393.108C611.741 413.108 636.34 424.776 639.985 436.616C650.305 470.122 641.074 487.372 621.504 495.531C602.403 503.342 574.575 505.234 546.95 491.435C498.694 467.406 511.716 499.648 456.879 475.96C443.116 470.113 427.854 500.08 414.559 458.599C403.981 425.138 387.173 455.373 380.369 426.831C372.058 391.122 412.728 385.153 344.316 344.443C262.905 296.162 339.175 167.56 408.744 179.681C412.577 180.344 416.074 182.128 419.311 183.957C446.564 200.207 423.63 234.949 545.606 267.463C571.811 274.608 607.03 270.909 626.784 285.272Z" stroke="white" stroke-width="0.5"/>
<path d="M644.862 279.229C668.156 295.632 639.905 333.416 633.332 376.741C632.339 383.28 631.347 389.819 630.142 396.661C627.006 418.429 654.621 430.637 659.004 443.677C671.631 481.294 661.646 501.858 640.145 511.146C618.903 520.39 587.756 521.528 557.062 505.342C502.755 477.051 518.04 513.148 456.432 487.18C440.943 480.572 423.905 515.621 409.158 468.819C397.306 431.068 378.205 466.474 370.777 434.326C361.538 394.797 408.318 388.835 330.93 343.838C238.772 290.25 329.068 147.55 403.556 162.004C407.692 162.881 411.749 164.833 415.334 167.132C444.838 185.647 416.384 225.323 554.041 260.964C582.961 268.436 622.474 263.463 644.862 279.229Z" stroke="white" stroke-width="0.5"/>
<path d="M662.637 272.972C687.916 290.095 658.955 331.45 650.338 378.311C649.177 385.41 647.501 392.599 646.34 399.698C642.182 423.235 673.026 435.681 678.193 450.178C692.868 491.952 682.6 515.483 658.743 526.505C635.616 537.136 601.196 537.778 566.917 519.293C506.559 486.742 524.318 526.39 456.03 498.659C438.86 491.545 419.957 531.162 403.801 479.297C390.675 437.256 369.495 477.531 361.229 442.079C351.019 398.473 403.998 393.03 317.846 343.446C215.199 284.508 319.308 128.01 398.627 144.283C403.323 145.328 407.38 147.281 411.571 150.006C443.069 170.829 409.093 215.44 562.691 254.162C594.413 262.477 637.92 256.018 662.637 272.972Z" stroke="white" stroke-width="0.5"/>
<path d="M680.671 266.671C707.978 284.77 678.307 329.698 667.389 380.141C665.757 387.586 663.956 395.592 662.369 403.296C657.235 428.859 691.049 441.588 696.955 457.282C713.935 503.168 702.914 530.014 677.128 542.166C652.071 553.926 614.378 554.073 576.816 533.502C510.408 496.69 530.428 540.194 455.37 510.183C436.518 502.562 415.795 547.006 397.929 489.864C383.528 443.532 360.012 488.723 351.166 449.922C340.242 402.193 399.375 397.013 303.989 343.187C190.594 278.943 308.774 108.604 392.969 126.953C397.924 127.954 402.586 130.333 406.821 133.315C440.57 156.402 400.817 205.992 570.355 247.796C605.563 256.304 653.364 248.573 680.671 266.671Z" stroke="white" stroke-width="0.5"/>
<path d="M698.446 260.415C727.737 279.233 697.358 327.732 684.396 381.712C682.337 389.762 680.323 398.07 678.354 406.636C672.198 433.967 709.286 447.191 715.673 464.13C734.959 514.128 723.397 543.986 695.469 557.569C668.528 570.716 627.303 570.413 586.626 547.196C514.167 506.123 536.448 553.481 454.924 521.404C434.391 513.278 411.848 562.546 392.527 500.084C376.852 449.462 351.303 499.78 341.618 457.675C329.723 405.869 395.056 401.209 290.861 342.539C166.978 272.943 298.971 88.8077 388.04 109.232C393.555 110.401 398.519 112.993 403.102 116.446C439.103 141.797 393.571 196.366 579.005 240.995C616.971 250.087 668.551 241.172 698.446 260.415Z" stroke="white" stroke-width="0.5"/>
<path d="M716.48 254.114C747.799 273.907 716.665 325.721 701.66 383.238C699.433 391.848 696.992 400.761 694.854 409.886C687.677 438.987 727.78 452.751 735.164 470.843C756.756 524.953 744.44 558.126 714.627 573.096C685.801 587.63 641.303 586.831 597.298 561.271C518.788 515.937 543.589 567.105 455.036 532.794C432.823 524.163 408.459 578.256 387.686 510.472C370.736 455.56 342.851 510.793 332.586 465.338C319.718 409.455 391.206 405.058 278.293 342.057C143.662 267.156 289.727 69.1791 383.671 91.6795C389.488 93.0617 394.755 95.8667 399.898 99.4882C438.15 127.104 387.099 186.606 588.215 234.362C628.164 244.173 683.996 233.727 716.48 254.114Z" stroke="white" stroke-width="0.5"/>
<path d="M734.255 247.858C767.603 268.627 735.929 323.453 718.711 385.066C716.057 394.282 713.449 403.754 710.884 413.483C702.685 444.352 746.016 458.355 753.926 477.948C777.824 536.17 764.709 572.399 733.011 588.757C702.043 604.723 654.485 603.125 607.196 575.479C522.637 525.885 549.744 581.165 454.68 544.529C430.785 535.393 404.555 594.054 382.374 521.207C364.407 461.96 334.186 522.107 323.083 473.348C309.502 413.344 387.144 409.21 264.997 341.967C119.876 261.715 279.754 49.9419 378.573 74.5178C384.694 76.1135 390.521 79.0864 395.708 82.965C436.213 112.845 379.382 177.326 596.439 228.164C639.314 238 699.44 226.281 734.255 247.858Z" stroke="white" stroke-width="0.5"/>
<path d="M752.289 241.557C787.621 263.044 755.237 321.443 735.718 386.638C732.896 396.413 729.86 406.489 726.825 416.566C717.603 449.203 763.951 463.745 772.857 484.494C799.061 546.827 785.45 586.327 751.61 604.116C718.711 621.211 667.925 619.376 617.264 589.129C526.654 535.274 556.281 594.363 454.188 555.493C428.869 545.807 400.563 609.338 376.928 531.17C357.687 467.633 325.174 532.951 313.491 480.844C298.938 416.761 382.78 413.148 251.868 341.318C96.0011 255.759 269.691 30.1888 373.644 56.7965C380.325 58.5612 386.454 61.7467 391.945 65.8388C434.7 97.9825 372.092 167.443 605.346 221.318C650.721 231.783 714.929 219.093 752.289 241.557Z" stroke="white" stroke-width="0.5"/>
<path d="M770.064 235.3C807.682 257.72 774.286 319.477 752.769 388.466C749.52 398.845 746.058 409.527 742.854 420.163C732.61 454.569 782.23 469.607 791.618 491.598C820.084 557.787 805.764 600.857 769.736 619.821C734.954 638.303 680.636 636.018 626.905 603.382C530.244 545.266 562.132 608.21 453.573 567.275C426.573 557.083 396.445 625.438 371.1 541.995C350.585 474.167 315.993 544.355 303.472 488.943C287.947 420.784 377.944 417.434 238.011 341.06C71.3961 250.194 259.158 10.7838 367.94 39.2098C374.924 41.1861 381.357 44.585 387.452 49.1041C432.201 83.557 364.117 158.207 613.222 214.651C661.915 225.868 730.373 211.648 770.064 235.3Z" stroke="white" stroke-width="0.5"/>
<path d="M788.142 229.257C827.744 252.394 793.639 317.723 770.077 390.251C766.402 401.234 762.771 412.474 759.398 423.671C748.133 459.846 800.725 475.166 811.154 498.57C841.925 568.87 827.064 614.953 788.939 635.606C752.227 655.217 694.636 652.436 637.622 617.714C535.124 555.036 569.06 622.136 453.731 578.922C425.049 568.224 393.057 641.148 366.303 552.641C344.514 480.523 307.631 555.884 294.485 496.864C277.987 424.627 374.397 421.496 225.489 340.837C48.3838 244.62 249.958 -8.58787 363.617 21.9146C371.115 23.8018 377.895 27.6712 384.035 32.4474C431.036 69.1649 357.174 148.795 622.219 208.319C673.065 219.696 745.818 204.203 788.142 229.257Z" stroke="white" stroke-width="0.5"/>
<path d="M805.918 223.001C847.549 247.114 812.69 315.758 787.085 391.822C783.24 403.365 779.182 415.211 775.383 427.011C763.141 465.212 818.961 480.77 829.871 505.418C862.949 579.83 847.289 628.969 807.279 651.009C768.425 672.052 707.819 668.73 647.174 631.453C538.625 564.513 575.08 635.424 452.981 589.93C422.574 578.469 389.064 656.432 360.599 562.648C337.535 486.239 298.574 566.47 284.635 504.405C267.423 428.046 369.775 425.478 212.103 340.231C24.2509 238.708 239.897 -28.34 358.43 4.23786C366.232 6.33854 373.526 10.119 380.014 15.3656C429.266 54.3467 349.885 138.911 630.611 201.562C684.473 213.479 761.005 196.802 805.918 223.001Z" stroke="white" stroke-width="0.5"/>
<path d="M823.951 216.7C867.61 241.79 831.997 313.747 804.136 393.651C799.865 405.798 795.594 417.946 791.368 430.351C778.104 470.32 836.94 486.419 848.589 512.264C883.972 590.789 867.817 643.198 825.62 666.412C784.88 688.842 720.956 684.768 657.028 645.404C542.429 574.204 581.145 648.968 452.321 601.452C420.233 589.488 384.902 672.275 354.985 573.171C330.646 492.472 289.349 577.617 274.572 512.246C256.389 431.811 364.895 429.506 198.246 339.974C-0.095631 233.1 229.363 -47.746 352.772 -13.0918C360.876 -10.7776 368.473 -6.78465 375.565 -1.11198C427.07 40.1337 341.954 129.934 638.577 195.41C695.666 207.564 776.449 189.356 823.951 216.7Z" stroke="white" stroke-width="0.5"/>
<path d="M841.727 210.443C887.369 236.252 851.047 311.781 821.142 395.222C816.702 407.929 812.006 420.681 807.61 433.645C793.325 475.384 855.434 491.978 867.822 519.023C905.512 601.659 888.602 657.383 844.52 681.984C801.896 705.801 734.441 701.276 667.398 659.266C546.748 583.805 587.726 662.424 452.39 612.585C418.621 600.114 381.469 687.726 350.099 583.302C324.486 498.312 281.155 588.585 265.496 519.652C246.339 435.139 361.304 433.31 185.588 338.977C-23.5 226.796 219.771 -67.8454 348.313 -31.1601C356.978 -28.678 364.878 -24.4705 372.015 -18.5408C425.77 24.9685 334.877 119.747 647.395 188.048C707.074 201.347 791.938 182.168 841.727 210.443Z" stroke="white" stroke-width="0.5"/>
<path d="M859.76 204.142C907.432 230.927 870.613 309.726 838.407 396.749C833.541 410.06 828.417 423.416 823.853 436.941C808.546 480.447 873.625 497.324 886.798 525.826C926.793 612.574 909.085 671.354 863.119 697.342C818.565 722.289 747.88 717.525 677.51 673.173C550.81 593.45 594.307 675.879 451.988 624.063C416.537 611.087 377.521 703.267 344.44 593.567C317.552 504.286 271.886 599.474 255.69 527.45C235.82 438.815 356.682 437.293 172.247 338.63C-47.3307 221.098 209.754 -87.3406 343.127 -48.8371C352.094 -46.1414 360.555 -41.766 367.994 -35.6226C424.001 10.1503 327.329 109.909 655.787 181.291C718.223 195.175 807.384 174.722 859.76 204.142Z" stroke="white" stroke-width="0.5"/>
<path d="M877.536 197.887C927.235 225.646 889.404 307.804 855.457 398.577C850.165 412.494 844.872 426.409 839.882 440.538C823.553 485.813 891.906 503.186 905.817 532.886C948.075 623.489 929.915 685.797 881.806 713.216C835.367 739.55 761.364 734.032 687.711 687.595C554.96 603.612 600.72 689.895 451.888 635.756C414.756 622.273 373.919 719.279 339.386 604.257C311.481 510.643 263.478 610.744 246.445 535.415C225.648 442.961 352.62 441.445 159.208 338.495C-71.1172 215.657 200.039 -106.622 338.287 -66.0422C347.814 -63.1785 356.319 -58.5461 364.319 -52.2339C422.577 -4.19626 320.172 100.798 664.784 174.96C729.417 189.26 822.57 167.322 877.536 197.887Z" stroke="white" stroke-width="0.5"/>
<path d="M895.57 191.586C947.253 220.064 908.97 305.749 872.464 400.149C867.003 414.625 861.284 429.144 855.823 443.621C838.473 490.664 909.841 508.576 924.49 539.476C969.05 634.191 950.095 699.555 899.843 728.405C851.52 756.127 774.245 750.114 697.218 701.075C558.631 612.53 606.695 702.925 450.881 646.807C412.067 632.821 369.411 734.652 333.424 614.309C304.245 516.404 253.95 621.677 236.292 542.742C214.524 446.21 347.694 445.215 145.52 337.678C-95.5524 209.534 189.675 -126.588 332.797 -83.9324C342.583 -81.1123 351.693 -76.0538 359.782 -69.2266C420.292 -18.9253 312.198 91.5621 672.661 168.292C740.567 183.088 838.015 159.877 895.57 191.586Z" stroke="white" stroke-width="0.5"/>
<path d="M913.346 185.329C967.055 214.783 928.021 303.783 889.471 401.72C883.539 416.542 877.696 431.88 872.065 446.915C853.738 495.986 928.29 513.878 943.51 546.536C990.638 645.319 970.924 713.997 918.486 744.022C868.02 773.174 787.684 766.364 707.376 715.24C562.737 622.433 613.063 716.683 450.737 658.242C410.242 643.75 365.72 750.148 328.325 624.742C297.871 522.547 245.499 632.691 227.003 550.451C204.262 449.842 343.846 449.065 132.392 337.028C-119.17 203.533 179.612 -146.341 327.868 -101.654C337.955 -98.6209 347.628 -93.3935 356.018 -86.3538C418.781 -33.788 304.908 81.679 681.265 161.233C752.018 177.129 853.504 152.688 913.346 185.329Z" stroke="white" stroke-width="0.5"/>
<path d="M931.423 179.286C987.163 209.717 947.373 302.03 906.824 403.761C900.724 419.144 894.454 435.086 888.397 450.726C869.048 501.564 946.616 519.997 962.832 553.809C1012.27 656.704 991.803 728.697 937.476 760.109C885.081 790.396 801.258 783.383 717.621 729.919C566.976 633.109 619.52 730.955 450.469 670.494C408.293 655.495 361.951 766.718 323.101 635.992C291.375 529.507 236.71 644.822 217.634 559.234C194.178 454.502 339.704 454.291 119.486 337.666C-142.823 198.865 170.075 -164.592 323.162 -118.086C333.81 -114.885 343.481 -109.659 352.478 -102.192C417.491 -47.3626 297.84 73.0829 690.138 155.719C763.169 170.956 868.948 145.243 931.423 179.286Z" stroke="white" stroke-width="0.5"/>
<path d="M981.5 560.4C1082.93 770.259 904.43 857.626 727.43 743.613C570.736 642.542 625.842 744.456 449.977 681.458C406.377 665.91 357.957 782.007 317.398 646C284.396 535.224 227.653 655.41 207.739 566.517C183.312 457.708 334.992 457.759 106.056 336.804C-185.737 182.669 208.257 -238.585 348.153 -119.487C415.206 -62.0908 290.203 62.7282 698.228 148.749C774.318 164.784 884.134 137.843 949.198 173.03C1015.73 209.024 951.811 330.715 904.383 454.066C883.966 506.416 964.549 525.388 981.5 560.4Z" stroke="white" stroke-width="0.5"/>
</g>
<defs>
<clipPath id="clip0_101_3">
<rect width="1012" height="936" fill="white" transform="translate(0 -141)"/>
</clipPath>
</defs>
</svg>
