<svg width="507" height="782" viewBox="0 0 507 782" fill="none" xmlns="http://www.w3.org/2000/svg">
<g opacity="0.3" clip-path="url(#clip0_6_152)">
<path d="M71.9705 440.83C67.323 439.638 63.8899 442.891 59.5938 446.293C54.2951 450.312 49.5265 458.672 38.9426 439.885C35.087 433.014 34.6568 421.561 26.0833 407.968C20.2705 398.775 2.03281 375.546 32.001 370.37C48.6018 367.502 72.7064 379.742 80.306 392.838C85.3973 401.713 66.5609 409.622 76.1302 421.269C81.5323 428.095 87.8582 438.973 85.1466 442.544C82.6137 445.863 76.4029 442.06 71.9705 440.83Z" stroke="white" stroke-width="0.5"/>
<path d="M95.3816 387.574C102.525 396.759 83.0955 407.652 90.5994 422.759C91.6199 424.8 92.6768 427.057 93.5177 429.349C96.6231 437.015 102.1 444.271 101.009 448.227C99.5041 454.916 93.5626 453.947 87.555 453.877C81.1164 453.88 75.3113 457.544 67.8692 458.164C58.6648 458.867 56.7366 466.959 44.5598 458.2C41.2723 455.887 37.7189 457.166 34.2494 448.676C31.5463 442.049 28.7432 442.533 26.8276 435.327C24.3244 426.007 27.3755 419.272 14.9303 407.678C0.133334 394.052 -6.60334 357.752 27.7016 355.817C28.8169 355.846 29.9322 355.874 31.0848 356.119C43.3615 357.767 51.8189 364.286 74.2578 374.597C82.6238 378.029 90.8128 381.713 95.3816 387.574Z" stroke="white" stroke-width="0.5"/>
<path d="M110.241 382.347C119.474 392.058 99.0577 406.225 104.816 424.072C105.695 426.581 106.396 429.342 107.096 432.102C109.347 441.246 117.129 448.99 117.088 453.874C116.864 464.11 110.938 465.798 103.14 466.923C95.0877 467.871 86.1526 471.41 76.3597 469.998C61.7406 467.646 62.275 478.416 44.4768 467.968C39.7836 465.233 34.6711 470.328 30.0236 457.608C26.2552 447.397 21.4993 451.987 19.0993 441.983C15.7831 429.255 23.9797 422.741 4.02967 407.566C-19.5364 389.469 -14.6213 340.96 23.6562 341.442C25.2026 341.396 26.6075 341.819 28.0132 342.24C41.9938 346.033 45.9029 355.776 81.5627 369.345C91.9451 372.872 103.724 375.493 110.241 382.347Z" stroke="white" stroke-width="0.5"/>
<path d="M125.317 377.083C136.208 387.394 116.277 404.358 119.033 425.385C119.34 428.436 119.899 431.664 120.459 434.893C121.857 445.514 130.865 453.933 132.735 459.595C137.241 472.782 128.099 477.686 118.472 479.793C108.844 481.899 96.9576 485.061 84.5606 481.439C64.6681 475.564 67.3086 489.518 43.8501 477.166C37.7511 474.007 31.1169 483.133 25.2551 465.969C20.4221 452.173 13.9657 461.047 10.8282 448.067C6.91489 431.896 20.041 425.638 -7.23506 406.63C-39.7853 384.1 -22.9661 323.56 19.245 326.243C21.0445 326.376 22.7026 326.976 24.5767 327.539C40.2239 333.26 39.6599 346.658 88.4671 363.054C101.481 367.678 116.814 369.02 125.317 377.083Z" stroke="white" stroke-width="0.5"/>
<path d="M140.176 371.856C152.726 382.767 131.555 402.828 133.287 426.913C133.453 430.431 133.657 434.165 133.859 437.898C134.439 450.211 145.969 459.082 148.635 465.494C155.069 482.116 145.259 489.574 134.056 492.839C122.853 496.105 108.014 498.89 93.0511 493.272C68.1004 483.838 72.847 500.975 43.729 486.719C36.4411 483.1 28.2851 496.258 20.9929 474.685C15.131 457.521 6.68539 470.285 2.8839 454.759C-1.84236 435.182 16.6824 429.321 -18.1348 406.518C-59.4542 379.518 -30.9468 306.982 15.1615 311.653C17.4293 311.926 19.3407 312.705 21.2893 313.698C38.6403 321.563 33.6024 338.615 95.5569 357.839C110.802 362.521 129.725 362.799 140.176 371.856Z" stroke="white" stroke-width="0.5"/>
<path d="M155.036 366.629C169.498 378.318 147.48 401.185 147.504 428.226C147.53 432.212 147.338 436.235 147.4 440.436C147.127 454.227 161.393 463.511 164.461 470.962C172.785 490.805 162.598 501.21 149.604 505.672C136.825 510.096 119.213 512.252 101.468 504.676C71.2431 491.72 78.0958 512.038 43.3565 496.093C34.6619 492.053 24.9841 509.243 16.2616 483.262C9.33436 462.512 -0.848972 479.345 -5.35081 461.059C-10.8892 438.075 12.781 432.434 -29.541 406.05C-79.8437 374.616 -39.5736 290.517 10.6097 296.922C13.0935 297.158 15.5104 298.292 17.7122 299.464C36.9458 309.22 27.2553 330.18 102.357 352.231C120.16 357.579 142.636 356.579 155.036 366.629Z" stroke="white" stroke-width="0.5"/>
<path d="M170.112 361.364C186.231 373.654 163.621 399.506 161.937 429.501C161.605 433.991 161.273 438.482 160.978 443.189C160.065 458.42 177.893 467.754 180.323 476.645C187.022 501.202 179.757 513.098 165.151 518.502C150.759 523.87 130.232 525.864 109.92 516.294C74.6381 499.778 83.3809 523.317 43.1981 505.431C33.0986 500.969 21.8617 521.974 11.9621 491.762C4.18466 467.392 -8.13018 488.583 -13.1545 467.283C-19.2891 440.855 9.3479 435.686 -40.3002 405.47C-99.372 369.566 -47.5915 273.724 6.7049 282.079C9.65701 282.456 12.1112 283.805 14.7813 285.117C35.6814 296.802 21.3392 321.669 110.018 346.474C129.696 352.385 155.547 350.358 170.112 361.364Z" stroke="white" stroke-width="0.5"/>
<path d="M184.971 356.137C202.749 369.027 179.762 397.826 175.975 431.066C175.503 436.025 174.814 441.02 174.163 446.231C172.396 462.941 192.96 472.689 196.007 482.581C204.634 510.574 196.918 524.986 180.557 531.802C164.59 538.329 141.326 539.909 118.233 528.381C77.8925 508.305 88.7787 535.242 42.9363 515.451C31.4311 510.567 18.6725 535.603 7.55844 500.947C-1.28433 472.992 -15.3361 498.252 -21.0235 474.406C-27.971 444.572 6.02734 439.585 -51.1628 405.573C-119.22 365.235 -55.4605 257.793 2.69669 267.919C5.90116 268.474 8.82446 269.964 11.531 271.492C34.3137 285.068 15.1411 314.094 117.109 341.259C139.016 347.228 168.458 344.137 184.971 356.137Z" stroke="white" stroke-width="0.5"/>
<path d="M200.084 351.088C219.557 364.793 195.94 396.361 190.445 432.557C189.615 438.021 188.786 443.484 187.779 449.199C185.158 467.387 208.243 477.586 211.907 488.48C222.462 519.908 214.115 537.089 196.141 544.849C178.384 552.571 152.346 553.522 126.686 539.999C81.2876 516.364 94.0648 546.521 42.5629 524.826C29.6147 519.305 15.3715 548.587 3.04315 509.485C-6.86496 477.946 -22.8323 507.527 -29.0422 480.668C-36.7654 447.642 2.34109 442.661 -62.3529 405.068C-139.394 360.297 -63.9094 241.075 -1.63991 253.151C1.81777 253.884 5.20937 255.515 8.20636 257.435C32.8708 272.904 9.08371 306.052 124.161 335.829C148.337 342.071 181.369 337.917 200.084 351.088Z" stroke="white" stroke-width="0.5"/>
<path d="M214.944 345.861C236.076 360.167 211.865 394.718 204.662 433.869C203.692 439.8 202.29 445.806 201.32 451.737C197.844 471.401 223.628 481.8 227.948 493.911C240.215 528.812 231.632 548.472 211.688 557.68C192.355 566.562 163.581 567.099 134.924 551.655C84.4674 524.46 99.3135 557.585 42.2267 534.416C27.8727 528.472 12.0705 561.572 -1.43499 518.24C-12.4084 483.115 -30.1135 516.764 -37.0237 487.145C-45.5591 450.714 -1.27071 446.166 -73.2908 404.74C-159.1 355.499 -72.0688 224.75 -5.76068 238.345C-1.8347 239.218 1.55691 240.85 5.06031 243.127C31.3913 260.524 2.98894 297.795 131.392 330.146C157.91 337.093 194.281 331.697 214.944 345.861Z" stroke="white" stroke-width="0.5"/>
<path d="M230.019 340.597C252.847 355.718 228.044 393.254 218.916 435.397C217.552 441.618 216.046 448.307 214.719 454.743C210.427 476.1 238.695 486.735 243.632 499.847C257.827 538.183 248.613 560.612 227.058 570.765C206.111 580.59 174.601 580.712 143.2 563.526C87.6846 532.771 104.421 569.117 41.6746 544.044C25.9156 537.677 8.59164 574.808 -6.34419 527.068C-18.383 488.359 -38.0417 526.114 -45.4363 493.697C-54.5687 453.821 -5.13487 449.494 -84.8748 404.524C-179.669 350.85 -80.8743 208.537 -10.4904 223.867C-6.34842 224.703 -2.45123 226.69 1.08944 229.182C29.3021 248.471 -3.9298 289.901 137.798 324.828C167.231 331.936 207.192 325.477 230.019 340.597Z" stroke="white" stroke-width="0.5"/>
<path d="M244.879 335.371C269.365 351.092 243.969 391.611 233.133 436.71C231.412 443.435 229.729 450.377 228.083 457.533C222.936 480.368 253.941 491.416 259.28 505.568C275.403 547.34 265.737 572.285 242.39 583.633C219.868 594.618 185.406 594.364 151.401 574.967C90.8273 540.652 109.454 580.218 41.302 553.418C24.1373 546.63 5.29152 587.792 -10.8595 535.607C-23.9636 493.313 -45.3219 535.353 -53.4178 500.175C-63.3623 456.893 -8.74579 452.999 -95.8491 403.982C-199.412 345.837 -89.0701 191.997 -14.6111 209.061C-10.0008 210.038 -5.85042 212.203 -2.01928 215.088C28.076 236.269 -9.98726 281.859 145.03 319.146C176.768 326.742 219.888 319.294 244.879 335.371Z" stroke="white" stroke-width="0.5"/>
<path d="M259.954 330.106C286.136 346.643 260.109 389.931 247.566 437.985C245.704 445.179 243.664 452.625 241.876 460.249C235.876 484.562 269.401 496.061 275.574 511.177C293.624 556.384 283.328 584.099 258.406 596.606C234.308 608.749 197.109 608.081 160.322 586.727C94.6906 548.852 115.423 591.6 41.396 562.934C22.8263 555.724 2.45878 600.917 -14.9067 544.286C-29.0761 498.408 -52.3872 544.554 -60.9683 506.577C-71.7258 459.889 -11.9639 456.216 -106.356 403.58C-218.903 341.002 -96.7976 175.598 -18.2636 194.397C-13.4001 195.552 -8.99737 197.895 -4.69793 200.921C27.2799 223.993 -15.3978 273.705 152.729 313.604C186.125 321.8 232.799 313.073 259.954 330.106Z" stroke="white" stroke-width="0.5"/>
<path d="M274.814 324.879C302.692 342.231 276.213 388.037 261.82 439.513C259.601 447.212 257.421 455.126 255.276 463.254C248.422 489.044 284.646 500.743 291.258 517.113C311.236 565.755 300.273 596.024 273.774 609.69C247.886 623.029 208.129 621.694 168.597 598.597C97.9077 557.163 120.569 603.347 41.0979 572.739C21.1225 565.106 -0.804936 614.116 -19.3475 553.254C-34.3672 503.755 -59.6311 554.006 -68.9126 513.269C-80.2663 463.138 -15.3597 459.684 -117.471 403.504C-238.788 336.456 -105.135 159.526 -22.5249 180.059C-17.4082 181.392 -12.5372 183.876 -8.20045 187.116C25.6599 212.08 -21.8483 265.952 159.604 308.426C195.446 316.643 245.71 306.853 274.814 324.879Z" stroke="white" stroke-width="0.5"/>
<path d="M289.89 319.615C319.426 337.567 292.354 386.357 276.037 440.826C273.678 448.992 271.14 457.411 268.602 465.829C260.894 493.097 299.638 505.246 307.084 522.582C328.989 574.659 317.611 607.66 289.322 622.522C261.82 636.804 219.364 635.272 177.013 610.001C101.266 565.006 126.033 614.374 40.6871 581.899C19.521 573.807 -4.14241 626.885 -23.9002 561.578C-39.9852 508.495 -67.1647 563.066 -76.9314 519.532C-89.0972 465.993 -19.008 462.974 -128.446 402.963C-258.746 331.48 -113.547 143.023 -26.6457 165.253C-21.0607 166.727 -15.9364 169.389 -11.3465 172.808C24.3955 199.663 -27.943 257.695 167.05 302.706C204.982 311.449 258.658 300.847 289.89 319.615Z" stroke="white" stroke-width="0.5"/>
<path d="M304.749 314.388C336.197 333.118 308.279 384.714 290.291 442.353C287.575 451.025 284.681 459.949 282.002 468.835C273.439 497.58 314.92 510.144 322.768 528.517C346.564 583.816 334.593 619.8 304.475 635.643C275.398 651.085 229.99 649.175 185.073 621.909C104.268 573.355 130.925 625.942 40.1723 591.742C17.6013 583.227 -7.58479 640.336 -28.772 570.622C-45.9224 513.953 -74.8397 572.594 -85.3067 526.299C-98.2855 469.354 -23.0508 466.555 -140.03 402.747C-279.315 326.831 -122.352 126.811 -31.4134 150.56C-25.5752 152.211 -20.1977 155.051 -15.1022 158.826C22.3064 187.611 -34.6094 249.979 173.634 297.135C214.34 306.508 271.569 294.627 304.749 314.388Z" stroke="white" stroke-width="0.5"/>
<path d="M319.862 309.339C352.968 328.669 324.457 383.249 304.76 443.845C301.688 453.021 298.653 462.411 295.833 471.766C286.416 501.989 330.381 514.788 339.099 534.342C364.823 593.076 352.4 631.576 320.528 648.831C289.838 665.216 241.694 662.892 194.032 633.883C108.347 581.517 136.716 637.578 40.3043 601.473C16.3276 592.535 -10.4167 653.461 -32.7819 579.516C-50.9976 519.264 -81.8304 582.226 -92.82 532.916C-106.612 472.565 -26.0156 469.948 -150.499 402.56C-298.553 322.174 -130.043 110.626 -35.0278 136.11C-28.7594 137.687 -23.0915 140.92 -17.9587 144.91C21.3324 175.586 -40.4137 242.115 181.155 291.846C223.661 301.351 284.48 288.407 319.862 309.339Z" stroke="white" stroke-width="0.5"/>
<path d="M334.722 304.112C369.524 324.258 340.383 381.608 318.978 445.157C315.764 454.801 312.372 464.697 309.196 474.557C298.962 506.472 345.626 519.47 354.746 540.063C382.398 602.232 369.307 643.286 335.86 661.7C303.379 679.281 252.714 676.505 202.017 645.361C111.274 589.435 141.749 648.679 39.6777 610.67C14.2588 601.095 -13.7549 666.23 -37.5505 587.877C-56.8315 524.04 -89.4012 591.07 -101.054 539.217C-115.443 475.421 -29.8797 473.276 -161.689 402.055C-318.727 317.235 -138.454 94.1241 -39.3636 121.342C-32.842 123.097 -26.7439 126.255 -21.3207 130.639C19.853 163.206 -46.5075 233.857 188.171 286.2C233.198 296.157 297.176 282.223 334.722 304.112Z" stroke="white" stroke-width="0.5"/>
<path d="M349.797 298.847C386.295 319.809 356.523 379.928 333.232 446.685C329.662 456.833 326.091 466.983 322.558 477.346C311.471 510.74 360.655 524.189 370.393 545.783C399.973 611.388 386.467 655.174 351.192 674.568C317.135 693.309 263.697 689.904 210.255 657.017C114.453 597.532 146.819 659.994 39.1264 620.297C12.3017 610.301 -17.2338 679.467 -42.2437 596.669C-62.5901 529.247 -97.1134 600.383 -109.466 545.767C-124.667 478.566 -33.959 476.64 -173.273 401.839C-339.08 312.549 -147.259 77.9109 -44.0941 106.863C-37.3193 108.797 -30.9679 112.133 -25.0392 116.872C18.0171 151.332 -53.1375 226.357 194.83 281.06C242.555 291.215 310.087 276.003 349.797 298.847Z" stroke="white" stroke-width="0.5"/>
<path d="M364.657 293.62C402.812 315.182 372.449 378.285 347.449 447.997C343.737 458.614 339.811 469.268 336.137 480.099C324.195 514.97 376.116 528.834 386.472 551.429C417.979 620.469 403.843 667.025 366.992 687.578C331.36 707.477 274.969 703.696 218.924 668.598C118.064 605.553 152.32 671.237 39.184 629.598C10.9536 619.178 -20.1037 692.376 -46.328 605.133C-67.7397 534.126 -103.964 609.547 -117.054 551.955C-133.068 481.347 -36.9611 479.819 -183.854 401.006C-358.645 307.283 -155.278 61.1185 -47.821 91.7679C-40.5779 93.8417 -33.9734 97.3569 -28.0073 102.311C16.9306 138.662 -59.0536 217.847 202.202 274.91C252.091 286.021 323.035 269.997 364.657 293.62Z" stroke="white" stroke-width="0.5"/>
<path d="M379.732 288.356C419.584 310.734 388.805 376.568 361.882 449.273C357.813 460.394 353.53 471.553 349.715 482.852C336.919 519.201 391.323 533.3 402.335 557.113C435.77 629.589 420.966 678.697 382.54 700.41C345.295 721.253 286.204 717.272 227.377 680.217C121.459 613.611 157.822 682.478 38.8478 639.187C9.21156 628.346 -23.4047 705.36 -51.0594 613.709C-73.5364 539.118 -111.712 618.644 -125.252 558.47C-141.862 484.418 -40.8253 483.147 -195.007 400.716C-378.567 302.522 -163.652 44.8308 -52.1569 76.9994C-44.6606 79.2515 -37.5877 82.9071 -31.3685 88.0397C15.4511 126.282 -65.3635 209.627 209.217 269.264C261.412 280.864 335.947 263.777 379.732 288.356Z" stroke="white" stroke-width="0.5"/>
<path d="M394.592 283.13C436.139 306.322 404.514 374.963 376.135 450.801C371.711 462.427 367.286 474.053 363.115 485.858C349.464 523.684 406.605 538.198 418.234 563.011C453.561 638.708 438.379 690.764 398.161 713.672C359.34 735.673 297.476 731.063 235.905 692.266C124.929 622.101 163.183 694.188 38.7639 648.956C7.72278 637.692 -26.4153 718.737 -55.2843 622.64C-78.6116 544.428 -118.741 628.059 -132.98 565.125C-150.366 487.882 -44.2211 486.615 -205.907 400.604C-398.452 297.977 -171.774 28.7217 -56.2031 62.625C-48.2386 65.0175 -41.1284 68.8878 -34.4409 74.1614C14.2613 114.295 -71.3465 202.015 216.738 263.975C270.769 275.923 348.642 257.594 394.592 283.13Z" stroke="white" stroke-width="0.5"/>
<path d="M409.668 277.865C452.874 301.658 420.87 373.246 390.353 452.114C385.787 464.208 381.006 476.339 376.441 488.433C361.937 527.737 421.598 542.701 433.844 568.517C471.095 647.649 455.249 702.259 413.24 726.362C372.844 749.523 308.244 744.499 243.852 703.529C127.998 629.551 168.178 705.074 37.9222 658.19C5.47522 646.504 -30.1838 731.581 -60.268 631.038C-84.6606 549.241 -126.706 637.194 -141.467 571.246C-159.665 490.596 -48.3385 489.765 -217.35 399.921C-418.879 292.86 -180.438 12.041 -60.7922 47.6782C-52.6117 50.0344 -44.996 54.2606 -38.2339 59.9645C12.3508 101.99 -78.012 194.299 223.323 258.404C280.091 270.766 361.554 251.374 409.668 277.865Z" stroke="white" stroke-width="0.5"/>
<path d="M424.528 272.638C469.427 297.246 436.796 371.603 404.57 453.426C399.61 465.81 394.726 478.624 390.019 491.186C374.698 532.183 437.021 547.131 449.745 574.416C489.142 656.946 472.662 714.325 428.825 739.409C386.638 763.765 319.479 758.075 252.344 715.363C131.43 637.826 173.502 716.568 37.802 667.743C3.94927 655.635 -33.2696 744.528 -64.531 639.755C-89.9889 554.374 -133.771 646.395 -149.233 577.687C-168.243 493.631 -51.5556 492.981 -228.325 399.378C-438.622 287.847 -188.85 -4.4621 -64.9129 32.8727C-56.48 35.4064 -48.3943 39.7738 -41.3799 45.6553C11.0874 89.5724 -84.1067 186.042 230.516 252.507C289.664 265.787 374.502 245.368 424.528 272.638Z" stroke="white" stroke-width="0.5"/>
<path d="M439.64 267.589C486.237 293.013 452.974 370.138 419.076 455.132C413.976 467.984 408.735 481.303 403.672 494.369C387.496 536.843 452.341 552.243 465.897 580.493C507.222 666.458 490.115 726.606 444.7 752.85C400.899 778.153 330.826 772.295 260.909 727.627C134.974 646.745 178.899 728.493 37.5775 677.979C2.31986 665.448 -36.4209 758.371 -68.8974 649.154C-95.4198 560.189 -141.118 656.531 -157.065 585.025C-176.673 497.525 -55.0184 497.348 -239.114 399.911C-458.395 283.947 -196.823 -19.7103 -68.8466 19.1442C-59.9454 21.8182 -51.8606 26.1848 -44.3397 32.423C10.0092 78.2313 -90.0152 178.86 237.934 247.9C298.985 260.63 387.413 239.147 439.64 267.589Z" stroke="white" stroke-width="0.5"/>
<path d="M481.503 585.999C566.296 761.33 417.075 834.322 269.109 739.068C138.117 654.626 184.185 739.772 37.1668 687.139C0.718546 674.149 -39.759 771.145 -73.6651 657.515C-101.254 564.965 -148.689 665.376 -165.337 591.109C-185.757 500.203 -58.9571 500.245 -250.34 399.191C-494.27 270.416 -164.904 -81.5296 -47.9548 17.9732C8.09883 65.9263 -96.3996 170.209 244.697 242.077C308.305 255.473 400.108 232.965 454.5 262.362C510.116 292.434 456.684 394.104 417.035 497.16C399.968 540.896 467.333 556.748 481.503 585.999Z" stroke="white" stroke-width="0.5"/>
</g>
<defs>
<clipPath id="clip0_6_152">
<rect width="846" height="782" fill="white" transform="translate(-339)"/>
</clipPath>
</defs>
</svg>
