<svg width="64" height="65" viewBox="0 0 64 65" fill="none" xmlns="http://www.w3.org/2000/svg">
<rect y="0.642578" width="64" height="64" rx="12" fill="white"/>
<path d="M45.0625 19.5801H18.9375C18.3078 19.5808 17.7042 19.8312 17.2589 20.2765C16.8137 20.7217 16.5632 21.3254 16.5625 21.9551V43.3301C16.5632 43.9597 16.8137 44.5634 17.2589 45.0086C17.7042 45.4539 18.3078 45.7044 18.9375 45.7051H45.0625C45.6921 45.7044 46.2958 45.4539 46.741 45.0086C47.1863 44.5634 47.4368 43.9597 47.4375 43.3301V21.9551C47.4368 21.3254 47.1863 20.7217 46.741 20.2765C46.2958 19.8312 45.6921 19.5808 45.0625 19.5801ZM18.9375 21.9551H45.0625L45.0629 27.8926H45.0625H18.9375V21.9551ZM45.0625 43.3301H29.625V30.2676H45.0625H45.0631L45.0639 43.3301H45.0625Z" fill="black"/>
</svg>
