<svg width="41" height="40" viewBox="0 0 41 40" fill="none" xmlns="http://www.w3.org/2000/svg">
<g clip-path="url(#clip0_5_178)">
<path d="M26.0556 28.8893C26.0556 29.184 25.9385 29.4666 25.7301 29.675C25.5218 29.8834 25.2391 30.0004 24.9445 30.0004H9.3889C9.14445 30.0004 8.91112 30.2227 8.71112 30.3671L4.94445 33.3338V15.556C4.94445 15.2613 5.06151 14.9787 5.26989 14.7703C5.47826 14.5619 5.76088 14.4449 6.05556 14.4449H10.3445V12.2227H6.05556C5.17151 12.2227 4.32366 12.5738 3.69854 13.199C3.07342 13.8241 2.72223 14.6719 2.72223 15.556V35.556C2.72388 35.7623 2.78297 35.9642 2.89287 36.1388C3.00277 36.3135 3.15914 36.4541 3.34445 36.5449C3.52298 36.6261 3.71983 36.6586 3.91498 36.639C4.11013 36.6195 4.29664 36.5487 4.45556 36.4338L10.1778 32.2227H25.1111C25.5322 32.2351 25.9514 32.161 26.3427 32.0048C26.734 31.8487 27.0891 31.6139 27.386 31.3149C27.6828 31.016 27.9152 30.6593 28.0686 30.2669C28.222 29.8745 28.2932 29.4548 28.2778 29.0338V27.7782H26.0556V28.8893Z" fill="#398378"/>
<path d="M34.9444 4.44434H16.0556C15.1715 4.44434 14.3237 4.79553 13.6985 5.42065C13.0734 6.04577 12.7222 6.89361 12.7222 7.77767V21.111C12.7222 21.9951 13.0734 22.8429 13.6985 23.468C14.3237 24.0931 15.1715 24.4443 16.0556 24.4443H31.1111L36.4222 28.5666C36.5801 28.6833 36.7661 28.7561 36.9613 28.7776C37.1565 28.799 37.3538 28.7684 37.5333 28.6888C37.7224 28.5987 37.8822 28.4571 37.9942 28.2801C38.1063 28.1032 38.1661 27.8982 38.1667 27.6888V7.77767C38.1671 6.91253 37.8313 6.0811 37.23 5.45908C36.6287 4.83705 35.8091 4.47317 34.9444 4.44434ZM36.0556 25.4888L32.1667 22.4554C31.9727 22.3049 31.7344 22.2229 31.4889 22.2221H16.0556C15.7609 22.2221 15.4783 22.1051 15.2699 21.8967C15.0615 21.6883 14.9444 21.4057 14.9444 21.111V7.77767C14.9444 7.48298 15.0615 7.20037 15.2699 6.992C15.4783 6.78362 15.7609 6.66656 16.0556 6.66656H34.9444C35.2415 6.69351 35.5184 6.82813 35.723 7.04506C35.9277 7.26199 36.0459 7.54626 36.0556 7.84434V25.4888Z" fill="#398378"/>
</g>
<defs>
<clipPath id="clip0_5_178">
<rect width="40" height="40" fill="white" transform="translate(0.5)"/>
</clipPath>
</defs>
</svg>
