<svg width="151" height="81" viewBox="0 0 151 81" fill="none" xmlns="http://www.w3.org/2000/svg">
<g opacity="0.6">
<g clip-path="url(#clip0_1_117)">
<path d="M56.2196 28.8232H47.9299C47.3627 28.8232 46.8802 29.2353 46.7917 29.7953L43.439 51.0523C43.3724 51.4717 43.6972 51.8498 44.1227 51.8498H48.0802C48.6475 51.8498 49.1299 51.4377 49.2184 50.8765L50.1227 45.1432C50.2099 44.582 50.6936 44.1698 51.2596 44.1698H53.8839C59.3445 44.1698 62.496 41.5274 63.319 36.2911C63.6899 34.0002 63.3348 32.2002 62.2621 30.9395C61.0839 29.5553 58.9942 28.8232 56.2196 28.8232ZM57.176 36.5868C56.7227 39.5614 54.4499 39.5614 52.2524 39.5614H51.0014L51.879 34.0062C51.9311 33.6705 52.2221 33.4232 52.5614 33.4232H53.1348C54.6318 33.4232 56.0439 33.4232 56.7736 34.2765C57.2087 34.7856 57.3421 35.542 57.176 36.5868Z" fill="white"/>
<path d="M80.999 36.4911H77.0293C76.6911 36.4911 76.399 36.7383 76.3469 37.0741L76.1711 38.1844L75.8936 37.782C75.0342 36.5347 73.1178 36.1177 71.2051 36.1177C66.8184 36.1177 63.0717 39.4402 62.3421 44.1008C61.9627 46.4256 62.502 48.6486 63.8208 50.1989C65.0305 51.6244 66.7614 52.2183 68.8208 52.2183C72.3554 52.2183 74.3154 49.9456 74.3154 49.9456L74.1384 51.0486C74.0717 51.4705 74.3966 51.8486 74.8196 51.8486H78.3954C78.9639 51.8486 79.4439 51.4365 79.5336 50.8753L81.679 37.2886C81.7469 36.8705 81.4233 36.4911 80.999 36.4911ZM75.4657 44.2171C75.0827 46.485 73.2827 48.0074 70.9869 48.0074C69.8342 48.0074 68.913 47.6377 68.3214 46.9371C67.7348 46.2414 67.5117 45.2511 67.6984 44.148C68.056 41.8996 69.8863 40.3274 72.1469 40.3274C73.2742 40.3274 74.1905 40.702 74.7942 41.4086C75.399 42.1226 75.639 43.1189 75.4657 44.2171Z" fill="white"/>
<path d="M102.141 36.4911H98.1517C97.7711 36.4911 97.4136 36.6802 97.1978 36.9965L91.696 45.1008L89.3639 37.3129C89.2172 36.8256 88.7675 36.4911 88.2584 36.4911H84.3384C83.862 36.4911 83.5311 36.9565 83.6827 37.405L88.0766 50.2996L83.9457 56.1311C83.6208 56.5905 83.9481 57.222 84.5093 57.222H88.4936C88.8717 57.222 89.2257 57.0378 89.4402 56.7275L102.708 37.5759C103.026 37.1178 102.7 36.4911 102.141 36.4911Z" fill="white"/>
<path d="M115.348 28.8232H107.057C106.491 28.8232 106.009 29.2353 105.92 29.7953L102.568 51.0523C102.501 51.4717 102.826 51.8498 103.249 51.8498H107.503C107.898 51.8498 108.237 51.5614 108.298 51.1686L109.25 45.1432C109.337 44.582 109.821 44.1698 110.387 44.1698H113.01C118.472 44.1698 121.622 41.5274 122.446 36.2911C122.818 34.0002 122.461 32.2002 121.388 30.9395C120.211 29.5553 118.123 28.8232 115.348 28.8232ZM116.304 36.5868C115.852 39.5614 113.58 39.5614 111.381 39.5614H110.131L111.01 34.0062C111.062 33.6705 111.351 33.4232 111.691 33.4232H112.264C113.76 33.4232 115.174 33.4232 115.903 34.2765C116.338 34.7856 116.471 35.542 116.304 36.5868Z" fill="white"/>
<path d="M140.126 36.4911H136.159C135.818 36.4911 135.529 36.7383 135.478 37.0741L135.302 38.1844L135.023 37.782C134.164 36.5347 132.249 36.1177 130.336 36.1177C125.949 36.1177 122.204 39.4402 121.474 44.1008C121.096 46.4256 121.633 48.6486 122.952 50.1989C124.164 51.6244 125.892 52.2183 127.952 52.2183C131.486 52.2183 133.446 49.9456 133.446 49.9456L133.269 51.0486C133.203 51.4705 133.527 51.8486 133.953 51.8486H137.527C138.094 51.8486 138.576 51.4365 138.664 50.8753L140.811 37.2886C140.877 36.8705 140.552 36.4911 140.126 36.4911ZM134.593 44.2171C134.212 46.485 132.41 48.0074 130.114 48.0074C128.964 48.0074 128.04 47.6377 127.449 46.9371C126.862 46.2414 126.641 45.2511 126.826 44.148C127.186 41.8996 129.014 40.3274 131.274 40.3274C132.401 40.3274 133.318 40.702 133.921 41.4086C134.529 42.1226 134.769 43.1189 134.593 44.2171Z" fill="white"/>
<path d="M144.806 29.4062L141.404 51.0523C141.337 51.4717 141.662 51.8498 142.085 51.8498H145.506C146.074 51.8498 146.557 51.4377 146.644 50.8765L149.999 29.6207C150.066 29.2014 149.741 28.822 149.318 28.822H145.488C145.149 28.8232 144.858 29.0704 144.806 29.4062Z" fill="white"/>
<path d="M9.01357 55.9808L9.64751 51.9541L8.23539 51.9214H1.49236L6.17842 22.2086C6.19297 22.1189 6.24024 22.0353 6.30933 21.9759C6.37842 21.9165 6.46691 21.8838 6.55903 21.8838H17.9287C21.7033 21.8838 24.3081 22.6692 25.6681 24.2195C26.3057 24.9468 26.7118 25.7068 26.9081 26.5432C27.1142 27.4208 27.1178 28.4692 26.9166 29.748L26.9021 29.8414V30.6608L27.5396 31.022C28.0766 31.3068 28.5033 31.6329 28.8305 32.0062C29.376 32.628 29.7287 33.4183 29.8778 34.3553C30.0318 35.3189 29.9808 36.4656 29.7287 37.7638C29.4378 39.2571 28.9675 40.5577 28.3324 41.622C27.7481 42.6026 27.0039 43.4159 26.1202 44.0462C25.2766 44.645 24.2742 45.0995 23.1408 45.3905C22.0427 45.6765 20.7905 45.8208 19.4172 45.8208H18.5324C17.8996 45.8208 17.2851 46.0486 16.8027 46.4571C16.319 46.8741 15.999 47.4438 15.9008 48.0668L15.8342 48.4292L14.7142 55.5262L14.6633 55.7868C14.6499 55.8692 14.6269 55.9105 14.593 55.9383C14.5627 55.9638 14.519 55.9808 14.4766 55.9808H9.01357Z" fill="white"/>
<path d="M28.1433 29.9359C28.1093 30.1529 28.0705 30.3747 28.0269 30.6026C26.5275 38.3008 21.3978 40.9602 14.8463 40.9602H11.5105C10.7093 40.9602 10.0342 41.542 9.90933 42.3323L8.20145 53.1638L7.71781 56.2341C7.6366 56.7529 8.0366 57.2208 8.56024 57.2208H14.4766C15.1772 57.2208 15.7724 56.7117 15.8827 56.0208L15.9408 55.7202L17.0548 48.6511L17.1263 48.2632C17.2354 47.5699 17.8317 47.0608 18.5324 47.0608H19.4172C25.1493 47.0608 29.6366 44.7335 30.9481 37.9989C31.496 35.1856 31.2124 32.8365 29.7627 31.1844C29.3239 30.6862 28.7796 30.2729 28.1433 29.9359Z" fill="white"/>
<path d="M26.5748 29.3105C26.3457 29.2438 26.1093 29.1832 25.8669 29.1286C25.6233 29.0753 25.3736 29.028 25.1166 28.9868C24.2172 28.8414 23.2318 28.7723 22.176 28.7723H13.2645C13.0451 28.7723 12.8366 28.822 12.6499 28.9117C12.239 29.1092 11.9336 29.4983 11.8596 29.9747L9.96388 41.982L9.90933 42.3323C10.0342 41.542 10.7093 40.9602 11.5105 40.9602H14.8463C21.3978 40.9602 26.5275 38.2996 28.0269 30.6026C28.0718 30.3747 28.1093 30.1529 28.1433 29.9359C27.7639 29.7347 27.353 29.5626 26.9105 29.4159C26.8015 29.3796 26.6887 29.3444 26.5748 29.3105Z" fill="white"/>
<path d="M11.8596 29.9747C11.9336 29.4983 12.239 29.1092 12.6499 28.9129C12.8378 28.8232 13.0451 28.7735 13.2645 28.7735H22.176C23.2317 28.7735 24.2172 28.8426 25.1166 28.988C25.3736 29.0292 25.6233 29.0765 25.8669 29.1299C26.1093 29.1844 26.3457 29.245 26.5748 29.3117C26.6887 29.3456 26.8014 29.3808 26.9117 29.4159C27.3542 29.5626 27.7651 29.7359 28.1445 29.9359C28.5905 27.0911 28.1408 25.1541 26.6026 23.4002C24.9069 21.4692 21.8463 20.6426 17.9299 20.6426H6.56022C5.76022 20.6426 5.0778 21.2244 4.95416 22.0159L0.218406 52.0341C0.125073 52.628 0.583255 53.1638 1.18204 53.1638H8.20144L9.96386 41.982L11.8596 29.9747Z" fill="white"/>
</g>
</g>
<defs>
<clipPath id="clip0_1_117">
<rect width="150.303" height="40" fill="white" transform="translate(0.206299 20.6426)"/>
</clipPath>
</defs>
</svg>
