<svg width="208" height="81" viewBox="0 0 208 81" fill="none" xmlns="http://www.w3.org/2000/svg">
<g opacity="0.6">
<g clip-path="url(#clip0_1_95)">
<path d="M206.739 50.9874C206.739 50.5933 206.345 50.4357 205.99 50.4357H205.32V52.4061H205.675V51.618H205.951L206.384 52.4061H206.818L206.305 51.5391C206.427 51.5202 206.538 51.4579 206.618 51.3638C206.697 51.2697 206.74 51.1501 206.739 51.0268V50.9874ZM205.675 51.3027V50.751H205.99C206.187 50.751 206.384 50.7904 206.384 51.0268C206.384 51.2633 206.148 51.3027 205.951 51.3027H205.675ZM205.99 49.7263C205.647 49.7342 205.315 49.8436 205.034 50.0406C204.753 50.2376 204.537 50.5133 204.413 50.8331C204.289 51.1528 204.263 51.5021 204.337 51.8368C204.412 52.1715 204.584 52.4766 204.832 52.7135C205.08 52.9504 205.393 53.1085 205.73 53.1678C206.068 53.227 206.416 53.1848 206.73 53.0465C207.043 52.9081 207.309 52.6798 207.493 52.3905C207.677 52.1012 207.771 51.7637 207.764 51.4209C207.764 51.1898 207.717 50.9611 207.628 50.7481C207.538 50.5351 207.407 50.3422 207.242 50.1807C207.077 50.0191 206.881 49.8922 206.666 49.8074C206.451 49.7226 206.221 49.6817 205.99 49.6869V49.7263ZM205.99 52.879C205.692 52.8789 205.401 52.79 205.154 52.6237C204.907 52.4573 204.715 52.2211 204.603 51.9451C204.491 51.6692 204.464 51.3661 204.525 51.0746C204.586 50.783 204.733 50.5163 204.946 50.3086C205.159 50.1008 205.43 49.9614 205.723 49.9081C206.016 49.8548 206.318 49.8902 206.591 50.0096C206.864 50.129 207.095 50.3271 207.255 50.5785C207.414 50.8299 207.495 51.1232 207.488 51.4209C207.488 51.8181 207.33 52.199 207.049 52.4798C206.768 52.7607 206.387 52.9185 205.99 52.9185V52.879ZM93.2808 50.0022C90.7192 50.0022 89.4187 47.6771 89.4187 45.4702C89.4187 43.2633 90.8374 41.0564 93.1625 41.0564C94.266 41.0564 95.6453 41.6081 96.197 42.3963L98.8768 39.6771C98.1198 38.9465 97.2242 38.3748 96.2428 37.9958C95.2614 37.6168 94.2141 37.438 93.1625 37.4702C88.4335 37.4702 85.0049 40.8593 85.0049 45.5096C85.0049 50.2386 88.3941 53.5884 93.2808 53.5884C95.5665 53.5884 97.6946 52.9185 98.9556 51.5391L96.3152 48.7017C95.9229 49.1114 95.452 49.4378 94.9306 49.6613C94.4092 49.8847 93.848 50.0007 93.2808 50.0022ZM78.1083 53.1549H82.3645V37.9037H78.1478L78.1083 53.1549ZM70.4236 46.2584C70.4236 48.0318 69.2414 49.9628 67.1133 49.9628C65.4187 49.9628 64.5123 48.7805 64.5123 46.2978V37.9431H60.2955V47.4012C60.2955 50.5539 61.8719 53.6278 66.0886 53.6278C68.0591 53.6278 69.7143 52.0515 70.5418 50.8692H70.6207V53.1943H74.6404V37.9037H70.4236V46.2584ZM52.6896 39.8347H52.6108C52.0197 39.1648 50.4039 37.4702 47.8029 37.4702C43.5074 37.4702 40.197 40.8199 40.197 45.4702C40.197 50.1992 43.2709 53.5884 47.6059 53.5884C48.5331 53.5599 49.4447 53.3425 50.2849 52.9495C51.1252 52.5564 51.8764 51.9961 52.4926 51.3027H52.5714V60.6426H56.7487V37.9037H52.729L52.6896 39.8347ZM48.6305 50.0022C46.0295 50.0022 44.532 47.7165 44.532 45.4702C44.532 43.3027 45.8719 41.017 48.6305 41.017C51.1133 41.017 52.6502 43.3815 52.6502 45.5096C52.6502 47.6377 51.1527 50.0022 48.6305 50.0022ZM144.512 37.4702C139.744 37.4702 136.236 40.8199 136.236 45.4702C136.236 50.2781 139.783 53.6278 144.512 53.6278C149.241 53.6278 152.788 50.2386 152.788 45.4702C152.788 40.8199 149.32 37.4702 144.512 37.4702ZM144.512 50.0022C141.754 50.0022 140.532 47.6377 140.532 45.4702C140.532 43.3027 141.793 41.017 144.512 41.017C147.231 41.017 148.571 43.3027 148.571 45.4702C148.571 47.6377 147.31 50.0022 144.552 50.0022H144.512ZM197.163 43.7756C194.995 43.2633 194.207 42.9874 194.207 42.081C194.207 40.8987 195.783 40.6229 196.453 40.6229C197.754 40.6229 199.212 41.4111 199.803 42.1204L202.286 39.7559C201.103 38.3372 198.857 37.5096 196.493 37.5096C193.419 37.5096 190.227 39.0465 190.227 42.4357C190.227 45.3914 192.552 46.2584 194.798 46.8101C197.163 47.3618 198.03 47.7559 198.03 48.7411C198.03 50.1204 196.453 50.3569 195.862 50.3569C195.136 50.3232 194.425 50.1456 193.769 49.8344C193.112 49.5232 192.525 49.0846 192.039 48.5441L189.478 51.1451C190.857 52.7214 193.261 53.6278 195.704 53.6278C199.842 53.6278 202.286 51.6574 202.286 48.4258C202.286 45.3519 199.291 44.2879 197.163 43.7756ZM189.163 37.9037H183.724L178.286 44.2091H178.207V29.5096H173.99V53.1549H178.207V45.6672H178.286L183.921 53.1549H189.438L182.897 44.8396L189.163 37.9037ZM126.739 37.5096C124.768 37.5096 123.389 38.2978 122.01 39.5588H121.97V29.5096H117.754V53.1549H121.773V50.9874H121.852C122.371 51.7778 123.079 52.426 123.911 52.8734C124.744 53.3207 125.675 53.553 126.621 53.549C130.956 53.549 134.266 50.1598 134.266 45.4702C134.266 40.8199 131.034 37.4702 126.739 37.4702V37.5096ZM125.911 50.0022C123.35 50.0022 121.852 47.7165 121.852 45.5096C121.852 43.3027 123.429 41.017 125.911 41.017C128.631 41.017 129.97 43.3027 129.97 45.4702C129.97 47.7165 128.512 50.0022 125.911 50.0022ZM116.177 37.9037H110.739L105.3 44.2091H105.222V29.5096H101.005V53.1549H105.222V45.6672H105.3L110.936 53.1549H116.453L109.951 44.8396L116.177 37.9037ZM162.995 37.5096C158.187 37.5096 154.719 40.8593 154.719 45.4702C154.719 50.2781 158.266 53.6278 162.995 53.6278C167.724 53.6278 171.271 50.2386 171.271 45.4702C171.271 40.8199 167.764 37.4702 162.995 37.4702V37.5096ZM162.995 50.0022C160.236 50.0022 158.975 47.6377 158.975 45.4702C158.975 43.3027 160.236 41.017 162.995 41.017C165.754 41.017 166.975 43.3027 166.975 45.4702C166.975 47.6377 165.714 50.0022 162.995 50.0022Z" fill="white"/>
<path fill-rule="evenodd" clip-rule="evenodd" d="M35.468 38.3766C35.468 48.1708 27.5282 56.1106 17.734 56.1106C7.93978 56.1106 0 48.1708 0 38.3766C0 28.5824 7.93978 20.6426 17.734 20.6426C27.5282 20.6426 35.468 28.5824 35.468 38.3766ZM6.94606 43.2532C5.65271 41.9598 4.92611 40.2057 4.92611 38.3766C4.92611 36.5475 5.65271 34.7933 6.94606 33.5C8.23941 32.2066 9.99358 31.48 11.8227 31.48H16.7488V50.0022C16.4124 50.0022 16.0793 49.9359 15.7685 49.8072C15.4577 49.6785 15.1753 49.4898 14.9375 49.2519C14.6996 49.0141 14.5109 48.7317 14.3822 48.4209C14.2534 48.1101 14.1872 47.777 14.1872 47.4406V34.0416H11.8227C10.673 34.0416 9.57033 34.4983 8.75737 35.3113C7.9444 36.1242 7.48768 37.2269 7.48768 38.3766C7.48768 39.5263 7.9444 40.6289 8.75737 41.4419C9.57033 42.2548 10.673 42.7115 11.8227 42.7115H12.8079V45.2731H11.8227C9.99358 45.2731 8.23941 44.5465 6.94606 43.2532ZM22.6601 31.48H23.6453C24.551 31.48 25.4478 31.6584 26.2845 32.005C27.1212 32.3516 27.8815 32.8596 28.5219 33.5C29.1623 34.1404 29.6703 34.9006 30.0169 35.7374C30.3635 36.5741 30.5419 37.4709 30.5419 38.3766C30.5419 39.2822 30.3635 40.179 30.0169 41.0158C29.6703 41.8525 29.1623 42.6128 28.5219 43.2532C27.8815 43.8936 27.1212 44.4016 26.2845 44.7482C25.4478 45.0947 24.551 45.2731 23.6453 45.2731H18.7192V26.751C19.3986 26.751 20.0501 27.0208 20.5305 27.5012C21.0109 27.9816 21.2808 28.6332 21.2808 29.3125V42.7115H23.6453C24.795 42.7115 25.8976 42.2548 26.7106 41.4419C27.5236 40.6289 27.9803 39.5263 27.9803 38.3766C27.9803 37.2269 27.5236 36.1242 26.7106 35.3113C25.8976 34.4983 24.795 34.0416 23.6453 34.0416H22.6601V31.48Z" fill="white"/>
<path d="M57.5369 24.7017C57.7707 24.7017 57.9993 24.6323 58.1937 24.5024C58.3882 24.3725 58.5397 24.1879 58.6292 23.9718C58.7187 23.7558 58.7421 23.5181 58.6965 23.2888C58.6508 23.0594 58.5382 22.8488 58.3729 22.6834C58.2076 22.5181 57.9969 22.4055 57.7676 22.3599C57.5382 22.3142 57.3005 22.3377 57.0845 22.4271C56.8684 22.5166 56.6838 22.6682 56.5539 22.8626C56.424 23.057 56.3546 23.2856 56.3546 23.5194C56.3546 23.833 56.4792 24.1337 56.7009 24.3554C56.9226 24.5771 57.2234 24.7017 57.5369 24.7017ZM50.5615 25.4898C50.0709 25.4892 49.5897 25.6253 49.172 25.8828C48.7544 26.1404 48.4167 26.5092 48.197 26.948H48.1182V25.6869H46.3054V33.4504H48.2364V29.1943C48.2364 28.1697 48.8276 27.1056 50.0492 27.1056C51.2709 27.1056 51.5074 28.2485 51.5074 29.1549V33.4898H53.4384V28.5637C53.4384 26.9874 52.6108 25.411 50.5615 25.411V25.4898ZM42.3645 33.4504H44.3349V25.6869H42.3645V33.4504ZM77.6354 24.6623C77.8693 24.6623 78.0978 24.5929 78.2923 24.463C78.4867 24.3331 78.6382 24.1485 78.7277 23.9324C78.8172 23.7164 78.8406 23.4787 78.795 23.2493C78.7494 23.02 78.6368 22.8094 78.4714 22.644C78.3061 22.4787 78.0954 22.3661 77.8661 22.3204C77.6367 22.2748 77.399 22.2982 77.183 22.3877C76.967 22.4772 76.7823 22.6287 76.6524 22.8232C76.5225 23.0176 76.4532 23.2462 76.4532 23.48C76.4532 23.7936 76.5777 24.0943 76.7994 24.316C77.0212 24.5377 77.3219 24.6623 77.6354 24.6623ZM74.4827 25.6869V27.4209H76.6502V33.4504H78.6207V27.4209H80.7881V25.6869H74.4827ZM71.1724 33.4504H73.1428V25.6869H71.1724V33.4504ZM54.4236 27.4209H56.5911V33.4504H58.5615V27.4209H60.729V25.6869H54.4236V27.4209ZM67.2709 29.9825C67.2709 31.0071 66.6798 32.0711 65.4581 32.0711C64.2364 32.0711 64 30.8889 64 29.9825V25.6869H62.0295V30.5342C62.0295 32.1105 62.8965 33.6869 64.9064 33.6869C65.4037 33.695 65.8933 33.5624 66.3186 33.3044C66.7439 33.0464 67.0877 32.6736 67.3103 32.2288H67.3497V33.4898H69.2019V25.6869H67.2315V29.943L67.2709 29.9825Z" fill="white"/>
</g>
</g>
<defs>
<clipPath id="clip0_1_95">
<rect width="207.764" height="40" fill="white" transform="translate(0 20.6426)"/>
</clipPath>
</defs>
</svg>
