<svg width="98" height="81" viewBox="0 0 98 81" fill="none" xmlns="http://www.w3.org/2000/svg">
<g opacity="0.6">
<path fill-rule="evenodd" clip-rule="evenodd" d="M97.049 41.3101C97.049 34.4744 93.7379 29.0805 87.4095 29.0805C81.0544 29.0805 77.2092 34.4744 77.2092 41.2567C77.2092 49.2941 81.7486 53.3529 88.264 53.3529C91.4415 53.3529 93.8447 52.6319 95.6605 51.6172V46.2768C93.8447 47.1846 91.762 47.7454 89.1184 47.7454C86.5283 47.7454 84.2319 46.8375 83.9382 43.6866H96.9956C96.9956 43.3395 97.049 41.951 97.049 41.3101ZM83.8581 38.7734C83.8581 35.7561 85.7005 34.5011 87.3828 34.5011C89.0116 34.5011 90.7473 35.7561 90.7473 38.7734H83.8581Z" fill="white"/>
<path fill-rule="evenodd" clip-rule="evenodd" d="M66.9022 29.0805C64.2853 29.0805 62.6031 30.3088 61.6685 31.1633L61.3214 29.5077H55.4469V60.6426L62.1225 59.2274L62.1491 51.6706C63.1104 52.3649 64.5257 53.3529 66.8755 53.3529C71.6552 53.3529 76.0076 49.5077 76.0076 41.0431C75.9809 33.2995 71.5751 29.0805 66.9022 29.0805ZM65.3 47.4784C63.7246 47.4784 62.79 46.9176 62.1491 46.2234L62.1225 36.3168C62.8167 35.5425 63.778 35.0084 65.3 35.0084C67.7299 35.0084 69.4122 37.732 69.4122 41.23C69.4122 44.8081 67.7566 47.4784 65.3 47.4784Z" fill="white"/>
<path fill-rule="evenodd" clip-rule="evenodd" d="M46.2613 27.5051L52.9636 26.0631V20.6426L46.2613 22.0578V27.5051Z" fill="white"/>
<path d="M52.9636 29.5344H46.2613V52.8989H52.9636V29.5344Z" fill="white"/>
<path fill-rule="evenodd" clip-rule="evenodd" d="M39.0784 31.5104L38.6511 29.5344H32.8835V52.8989H39.559V37.0645C41.1345 35.0084 43.8047 35.3822 44.6325 35.676V29.5344C43.778 29.214 40.6538 28.6266 39.0784 31.5104Z" fill="white"/>
<path fill-rule="evenodd" clip-rule="evenodd" d="M25.7273 23.7401L19.2119 25.1286L19.1852 46.5171C19.1852 50.469 22.1491 53.3796 26.1011 53.3796C28.2907 53.3796 29.8928 52.979 30.774 52.4984V47.0778C29.9195 47.425 25.7006 48.6533 25.7006 44.7013V35.222H30.774V29.5344H25.7006L25.7273 23.7401Z" fill="white"/>
<path fill-rule="evenodd" clip-rule="evenodd" d="M7.67651 36.3168C7.67651 35.2754 8.53098 34.8749 9.94621 34.8749C11.9756 34.8749 14.539 35.489 16.5684 36.5838V30.3088C14.3521 29.4276 12.1625 29.0805 9.94621 29.0805C4.52564 29.0805 0.920837 31.9109 0.920837 36.6372C0.920837 44.0071 11.0677 42.8322 11.0677 46.0097C11.0677 47.238 9.99961 47.6386 8.50428 47.6386C6.28799 47.6386 3.45755 46.7307 1.21456 45.5024V51.8575C3.69787 52.9256 6.20789 53.3796 8.50428 53.3796C14.0584 53.3796 17.8768 50.6292 17.8768 45.8495C17.8501 37.8923 7.67651 39.3075 7.67651 36.3168Z" fill="white"/>
</g>
</svg>
