<svg width="164" height="81" viewBox="0 0 164 81" fill="none" xmlns="http://www.w3.org/2000/svg">
<g opacity="0.6">
<g clip-path="url(#clip0_1_165)">
<path d="M27.5135 25.6426C28.6163 27.4019 29.1134 29.214 29.1134 31.5031C29.1134 38.8041 22.6613 48.2886 17.4246 54.9485H5.46364L0.666626 27.2411L11.1397 26.2806L13.676 45.9962C16.0458 42.2669 18.9702 36.4065 18.9702 32.4108C18.9702 30.2237 18.5823 28.7341 17.9761 27.5075L27.5135 25.6426Z" fill="white"/>
<path d="M41.0875 37.8451C43.0148 37.8451 47.8667 36.9934 47.8667 34.3296C47.8667 33.0506 46.9304 32.4125 45.827 32.4125C43.8967 32.4125 41.3635 34.6485 41.0875 37.8451ZM40.8667 43.1207C40.8667 46.3732 42.739 47.6493 45.2212 47.6493C47.9242 47.6493 50.5122 47.0112 53.876 45.3599L52.609 53.6706C50.2389 54.7892 46.5453 55.5356 42.9601 55.5356C33.8658 55.5356 30.611 50.208 30.611 43.5478C30.611 34.9155 35.9054 25.7496 46.8208 25.7496C52.8305 25.7496 56.1909 29.0019 56.1909 33.5305C56.1914 40.8313 46.4909 43.0678 40.8667 43.1207Z" fill="white"/>
<path d="M86.4154 32.0386C86.4154 33.1041 86.2485 34.6495 86.0815 35.6595L82.9393 54.8425H72.7412L75.6079 37.2578C75.6622 36.7809 75.8293 35.8207 75.8293 35.2879C75.8293 34.0088 75.002 33.6897 74.0074 33.6897C72.6863 33.6897 71.3621 34.2751 70.4802 34.7027L67.2288 54.8427H56.9734L61.6585 26.1225H70.5346L70.6469 28.4149C72.741 27.083 75.4983 25.6426 79.4104 25.6426C84.5939 25.642 86.4154 28.2005 86.4154 32.0386Z" fill="white"/>
<path d="M116.691 28.8936C119.612 26.8709 122.37 25.7496 126.172 25.7496C131.408 25.7496 133.23 28.308 133.23 32.1462C133.23 33.2117 133.063 34.7572 132.897 35.7672L129.758 54.95H119.557L122.479 36.9937C122.532 36.5137 122.645 35.9282 122.645 35.5568C122.645 34.1166 121.818 33.7972 120.823 33.7972C119.557 33.7972 118.29 34.3299 117.35 34.8102L114.099 54.9503H103.902L106.822 36.994C106.876 36.514 106.986 35.9285 106.986 35.5571C106.986 34.1169 106.158 33.7975 105.167 33.7975C103.843 33.7975 102.522 34.383 101.64 34.8105L98.3857 54.9506H88.1337L92.8187 26.2304H101.586L101.862 28.628C103.902 27.1911 106.656 25.7507 110.35 25.7507C113.548 25.7496 115.641 27.0817 116.691 28.8936Z" fill="white"/>
<path d="M153.523 37.2591C153.523 34.9145 152.916 33.316 151.098 33.316C147.074 33.316 146.247 40.189 146.247 43.7049C146.247 46.3723 147.019 48.023 148.837 48.023C152.641 48.023 153.523 40.7748 153.523 37.2591ZM135.883 43.2805C135.883 34.2234 140.844 25.7487 152.256 25.7487C160.856 25.7487 164 30.652 164 37.42C164 46.372 159.093 55.6426 147.404 55.6426C138.75 55.6426 135.883 50.1538 135.883 43.2805Z" fill="white"/>
</g>
</g>
<defs>
<clipPath id="clip0_1_165">
<rect width="163.333" height="30" fill="white" transform="translate(0.666626 25.6426)"/>
</clipPath>
</defs>
</svg>
